<svg width="50" height="50" viewBox="0 0 50 50" fill="none" xmlns="http://www.w3.org/2000/svg">
<rect width="50" height="50" rx="5" fill="#333333"/>
<g clip-path="url(#clip0_587_559)">
<path d="M35 20H28V18H35V20ZM36.726 30C36.284 31.297 34.697 33 31.625 33C28.551 33 26.061 31.271 26.061 27.325C26.061 23.415 28.386 21.405 31.527 21.405C34.609 21.405 36.491 23.187 36.902 25.831C36.98 26.337 37.011 27.019 36.997 27.971H28.97C29.1 31.182 32.453 31.283 33.558 30H36.726ZM29.04 26H34.005C33.9 24.453 32.869 23.781 31.528 23.781C30.062 23.781 29.251 24.549 29.04 26ZM19.466 32.988H13V18.021H19.953C25.429 18.102 25.533 23.465 22.673 24.927C26.134 26.187 26.25 32.988 19.466 32.988ZM16 24H19.584C22.092 24 22.49 21 19.272 21H16V24ZM19.391 27H16V30.016H19.341C22.396 30.016 22.209 27 19.391 27Z" fill="white"/>
</g>
<defs>
<clipPath id="clip0_587_559">
<rect width="24" height="24" fill="white" transform="translate(13 13)"/>
</clipPath>
</defs>
</svg>
