<svg width="50" height="50" viewBox="0 0 50 50" fill="none" xmlns="http://www.w3.org/2000/svg">
<rect width="50" height="50" rx="5" fill="#333333"/>
<path d="M36.643 17.9371C35.808 18.3071 34.911 18.5571 33.968 18.6701C34.941 18.0879 35.6689 17.1715 36.016 16.0921C35.1018 16.6351 34.1013 17.0173 33.058 17.2221C32.3564 16.4729 31.4271 15.9764 30.4143 15.8096C29.4016 15.6427 28.3621 15.8149 27.4572 16.2993C26.5524 16.7838 25.8328 17.5534 25.4102 18.4888C24.9875 19.4241 24.8855 20.4728 25.12 21.4721C23.2677 21.3791 21.4556 20.8976 19.8014 20.059C18.1472 19.2203 16.6878 18.0432 15.518 16.6041C15.118 17.2941 14.888 18.0941 14.888 18.9461C14.8876 19.7131 15.0764 20.4683 15.4379 21.1448C15.7993 21.8213 16.3222 22.3981 16.96 22.8241C16.2203 22.8005 15.4969 22.6007 14.85 22.2411V22.3011C14.8499 23.3768 15.222 24.4195 15.9032 25.2521C16.5843 26.0847 17.5326 26.656 18.587 26.8691C17.9008 27.0548 17.1813 27.0821 16.483 26.9491C16.7805 27.8747 17.36 28.6841 18.1404 29.264C18.9207 29.8439 19.8629 30.1653 20.835 30.1831C19.1848 31.4785 17.1469 32.1812 15.049 32.1781C14.6774 32.1782 14.3061 32.1565 13.937 32.1131C16.0665 33.4823 18.5453 34.2089 21.077 34.2061C29.647 34.2061 34.332 27.1081 34.332 20.9521C34.332 20.7521 34.327 20.5501 34.318 20.3501C35.2293 19.6911 36.0159 18.875 36.641 17.9401L36.643 17.9371Z" fill="white"/>
</svg>
